<svg width="511" height="100" viewBox="0 0 511 100" fill="none" xmlns="http://www.w3.org/2000/svg">
<path opacity="0.87" d="M20.984 38V37.04C22.008 36.976 22.776 36.848 23.288 36.656C23.8 36.464 24.136 36.08 24.296 35.504C24.488 34.928 24.584 34.064 24.584 32.912V9.104C24.584 7.92 24.488 7.056 24.296 6.512C24.136 5.936 23.784 5.552 23.24 5.36C22.728 5.136 21.976 5.008 20.984 4.976V4.016C21.848 4.048 22.968 4.08 24.344 4.112C25.752 4.144 27.144 4.16 28.52 4.16C29.992 4.16 31.368 4.144 32.648 4.112C33.96 4.08 35.016 4.048 35.816 4.016V4.976C34.792 5.008 34.008 5.136 33.464 5.36C32.952 5.552 32.616 5.936 32.456 6.512C32.296 7.056 32.216 7.92 32.216 9.104V32.912C32.216 34.064 32.296 34.928 32.456 35.504C32.648 36.08 33 36.464 33.512 36.656C34.024 36.848 34.792 36.976 35.816 37.04V38C35.016 37.936 33.96 37.904 32.648 37.904C31.368 37.872 29.992 37.856 28.52 37.856C27.144 37.856 25.752 37.872 24.344 37.904C22.968 37.904 21.848 37.936 20.984 38ZM0.632 38V37.04C1.656 36.976 2.424 36.848 2.936 36.656C3.448 36.464 3.784 36.08 3.944 35.504C4.136 34.928 4.232 34.064 4.232 32.912V9.104C4.232 7.92 4.136 7.056 3.944 6.512C3.784 5.936 3.432 5.552 2.888 5.36C2.376 5.136 1.624 5.008 0.632 4.976V4.016C1.464 4.048 2.536 4.08 3.848 4.112C5.192 4.144 6.648 4.16 8.216 4.16C9.56 4.16 10.888 4.144 12.2 4.112C13.512 4.08 14.6 4.048 15.464 4.016V4.976C14.44 5.008 13.656 5.136 13.112 5.36C12.6 5.552 12.264 5.936 12.104 6.512C11.944 7.056 11.864 7.92 11.864 9.104V32.912C11.864 34.064 11.944 34.928 12.104 35.504C12.296 36.08 12.648 36.464 13.16 36.656C13.672 36.848 14.44 36.976 15.464 37.04V38C14.6 37.936 13.512 37.904 12.2 37.904C10.888 37.872 9.56 37.856 8.216 37.856C6.648 37.856 5.192 37.872 3.848 37.904C2.536 37.904 1.464 37.936 0.632 38ZM8.744 21.392V20.432H27.704V21.392H8.744ZM44.5974 38.336C42.4534 38.336 40.9014 37.776 39.9414 36.656C38.9814 35.536 38.5014 34.176 38.5014 32.576C38.5014 31.2 38.8054 30.08 39.4134 29.216C40.0534 28.352 40.8694 27.648 41.8614 27.104C42.8534 26.528 43.8934 26.064 44.9814 25.712C46.1014 25.328 47.1574 24.96 48.1494 24.608C49.1734 24.224 49.9894 23.792 50.5974 23.312C51.2374 22.832 51.5574 22.224 51.5574 21.488V17.744C51.5574 16.912 51.4134 16.176 51.1254 15.536C50.8694 14.864 50.4534 14.352 49.8774 14C49.3334 13.648 48.6134 13.472 47.7174 13.472C47.0774 13.472 46.4374 13.568 45.7974 13.76C45.1574 13.92 44.6294 14.208 44.2134 14.624C45.1094 14.944 45.7974 15.44 46.2774 16.112C46.7894 16.752 47.0454 17.488 47.0454 18.32C47.0454 19.408 46.6614 20.272 45.8934 20.912C45.1574 21.552 44.2774 21.872 43.2534 21.872C42.1014 21.872 41.2214 21.52 40.6134 20.816C40.0374 20.08 39.7494 19.2 39.7494 18.176C39.7494 17.248 39.9734 16.48 40.4214 15.872C40.9014 15.264 41.5574 14.688 42.3894 14.144C43.2854 13.632 44.3574 13.232 45.6054 12.944C46.8854 12.656 48.2614 12.512 49.7334 12.512C51.2054 12.512 52.5334 12.672 53.7174 12.992C54.9014 13.28 55.8934 13.824 56.6934 14.624C57.4294 15.36 57.9094 16.272 58.1334 17.36C58.3574 18.416 58.4694 19.76 58.4694 21.392V34.448C58.4694 35.216 58.5494 35.76 58.7094 36.08C58.8694 36.4 59.1414 36.56 59.5254 36.56C59.8454 36.56 60.1494 36.48 60.4374 36.32C60.7254 36.16 60.9974 35.968 61.2534 35.744L61.7334 36.56C61.0614 37.136 60.2774 37.584 59.3814 37.904C58.5174 38.192 57.5414 38.336 56.4534 38.336C54.5334 38.336 53.2534 37.952 52.6134 37.184C52.0054 36.384 51.6854 35.472 51.6534 34.448C50.8534 35.76 49.8614 36.736 48.6774 37.376C47.5254 38.016 46.1654 38.336 44.5974 38.336ZM48.2934 35.264C48.9014 35.264 49.4614 35.12 49.9734 34.832C50.5174 34.544 51.0454 34.032 51.5574 33.296V23.456C51.1734 24.096 50.6294 24.64 49.9254 25.088C49.2534 25.504 48.5494 25.968 47.8134 26.48C47.1094 26.96 46.5174 27.584 46.0374 28.352C45.5574 29.12 45.3174 30.144 45.3174 31.424C45.3174 32.8 45.6054 33.792 46.1814 34.4C46.7574 34.976 47.4614 35.264 48.2934 35.264ZM85.8204 13.184V14.144C85.2124 14.304 84.6364 14.688 84.0924 15.296C83.5484 15.872 83.0204 16.864 82.5084 18.272L75.5004 38.096C74.9884 38.064 74.4604 38.048 73.9164 38.048C73.4044 38.048 72.8924 38.064 72.3804 38.096L63.8364 16.88C63.3244 15.632 62.8124 14.88 62.3004 14.624C61.8204 14.336 61.4044 14.192 61.0524 14.192V13.184C62.0764 13.248 63.1324 13.312 64.2204 13.376C65.3404 13.408 66.5564 13.424 67.8684 13.424C68.8604 13.424 69.9004 13.408 70.9884 13.376C72.1084 13.312 73.1484 13.248 74.1084 13.184V14.192C73.4364 14.192 72.8284 14.224 72.2844 14.288C71.7724 14.352 71.4204 14.56 71.2284 14.912C71.0364 15.264 71.0684 15.888 71.3244 16.784L76.9404 31.664L76.4604 32.336L80.2524 21.824C81.1484 19.232 81.2924 17.344 80.6844 16.16C80.0764 14.944 79.0204 14.272 77.5164 14.144V13.184C78.2524 13.216 79.0364 13.248 79.8684 13.28C80.7324 13.312 81.4844 13.328 82.1244 13.328C82.7644 13.328 83.4364 13.312 84.1404 13.28C84.8444 13.248 85.4044 13.216 85.8204 13.184ZM98.6923 12.512C101.508 12.512 103.716 13.344 105.316 15.008C106.916 16.672 107.716 19.392 107.716 23.168H91.9243L91.8283 22.256H101.668C101.7 20.688 101.604 19.248 101.38 17.936C101.156 16.592 100.804 15.52 100.324 14.72C99.8443 13.92 99.2043 13.52 98.4043 13.52C97.2843 13.52 96.3243 14.224 95.5243 15.632C94.7563 17.04 94.2923 19.376 94.1323 22.64L94.2763 22.928C94.2443 23.312 94.2123 23.712 94.1803 24.128C94.1803 24.544 94.1803 24.976 94.1803 25.424C94.1803 27.632 94.4843 29.424 95.0923 30.8C95.7323 32.176 96.5323 33.184 97.4922 33.824C98.4523 34.432 99.4283 34.736 100.42 34.736C101.38 34.736 102.42 34.496 103.54 34.016C104.692 33.536 105.764 32.496 106.756 30.896L107.62 31.184C107.236 32.4 106.628 33.584 105.796 34.736C104.964 35.888 103.908 36.832 102.628 37.568C101.348 38.304 99.8123 38.672 98.0203 38.672C95.8443 38.672 93.9243 38.208 92.2603 37.28C90.5963 36.352 89.2843 34.944 88.3242 33.056C87.3963 31.168 86.9323 28.768 86.9323 25.856C86.9323 22.88 87.4283 20.4 88.4203 18.416C89.4443 16.432 90.8363 14.96 92.5963 14C94.3883 13.008 96.4203 12.512 98.6923 12.512ZM128.035 38.336C125.891 38.336 124.339 37.776 123.379 36.656C122.419 35.536 121.939 34.176 121.939 32.576C121.939 31.2 122.243 30.08 122.851 29.216C123.491 28.352 124.307 27.648 125.299 27.104C126.291 26.528 127.331 26.064 128.419 25.712C129.539 25.328 130.595 24.96 131.587 24.608C132.611 24.224 133.427 23.792 134.035 23.312C134.675 22.832 134.995 22.224 134.995 21.488V17.744C134.995 16.912 134.851 16.176 134.563 15.536C134.307 14.864 133.891 14.352 133.315 14C132.771 13.648 132.051 13.472 131.155 13.472C130.515 13.472 129.875 13.568 129.235 13.76C128.595 13.92 128.067 14.208 127.651 14.624C128.547 14.944 129.235 15.44 129.715 16.112C130.227 16.752 130.483 17.488 130.483 18.32C130.483 19.408 130.099 20.272 129.331 20.912C128.595 21.552 127.715 21.872 126.691 21.872C125.539 21.872 124.659 21.52 124.051 20.816C123.475 20.08 123.187 19.2 123.187 18.176C123.187 17.248 123.411 16.48 123.859 15.872C124.339 15.264 124.995 14.688 125.827 14.144C126.723 13.632 127.795 13.232 129.043 12.944C130.323 12.656 131.699 12.512 133.171 12.512C134.643 12.512 135.971 12.672 137.155 12.992C138.339 13.28 139.331 13.824 140.131 14.624C140.867 15.36 141.347 16.272 141.571 17.36C141.795 18.416 141.907 19.76 141.907 21.392V34.448C141.907 35.216 141.987 35.76 142.147 36.08C142.307 36.4 142.579 36.56 142.963 36.56C143.283 36.56 143.587 36.48 143.875 36.32C144.163 36.16 144.435 35.968 144.691 35.744L145.171 36.56C144.499 37.136 143.715 37.584 142.819 37.904C141.955 38.192 140.979 38.336 139.891 38.336C137.971 38.336 136.691 37.952 136.051 37.184C135.443 36.384 135.123 35.472 135.091 34.448C134.291 35.76 133.299 36.736 132.115 37.376C130.963 38.016 129.603 38.336 128.035 38.336ZM131.731 35.264C132.339 35.264 132.899 35.12 133.411 34.832C133.955 34.544 134.483 34.032 134.995 33.296V23.456C134.611 24.096 134.067 24.64 133.363 25.088C132.691 25.504 131.987 25.968 131.251 26.48C130.547 26.96 129.955 27.584 129.475 28.352C128.995 29.12 128.755 30.144 128.755 31.424C128.755 32.8 129.043 33.792 129.619 34.4C130.195 34.976 130.899 35.264 131.731 35.264ZM193.031 37.424L193.895 37.664C193.639 39.424 193.239 40.928 192.695 42.176C192.151 43.456 191.447 44.448 190.583 45.152C189.911 45.696 189.031 46.144 187.943 46.496C186.887 46.848 185.703 47.024 184.391 47.024C182.631 47.024 180.903 46.752 179.207 46.208C177.543 45.664 175.847 44.992 174.119 44.192C172.391 43.424 170.567 42.672 168.647 41.936C168.423 41.872 168.199 41.792 167.975 41.696C167.783 41.632 167.623 41.6 167.495 41.6C166.887 41.888 166.215 42.128 165.479 42.32C164.775 42.512 164.103 42.608 163.463 42.608C162.823 42.608 162.279 42.512 161.831 42.32C161.415 42.128 161.207 41.808 161.207 41.36C161.207 40.496 162.087 40.064 163.847 40.064C164.967 40.064 166.183 40.288 167.495 40.736C168.679 40.416 169.687 40.048 170.519 39.632C171.383 39.248 172.263 38.88 173.159 38.528C174.087 38.176 175.207 37.952 176.519 37.856L176.567 38.624C175.543 38.72 174.663 38.896 173.927 39.152C173.223 39.44 172.503 39.744 171.767 40.064C171.031 40.384 170.167 40.688 169.175 40.976C171.447 41.136 173.559 41.296 175.511 41.456C177.463 41.648 179.271 41.76 180.935 41.792C182.599 41.856 184.103 41.792 185.447 41.6C187.431 41.376 188.999 40.944 190.151 40.304C191.303 39.664 192.263 38.704 193.031 37.424ZM175.415 3.344C178.807 3.344 181.767 4.032 184.295 5.408C186.855 6.784 188.839 8.768 190.247 11.36C191.655 13.92 192.359 17.04 192.359 20.72C192.359 24.304 191.639 27.44 190.199 30.128C188.759 32.816 186.743 34.912 184.151 36.416C181.591 37.92 178.663 38.672 175.367 38.672C171.975 38.672 168.999 37.984 166.439 36.608C163.911 35.232 161.943 33.248 160.535 30.656C159.127 28.064 158.423 24.944 158.423 21.296C158.423 17.712 159.143 14.576 160.583 11.888C162.055 9.2 164.055 7.104 166.583 5.6C169.143 4.096 172.087 3.344 175.415 3.344ZM175.223 4.208C173.431 4.208 171.863 4.928 170.519 6.368C169.207 7.808 168.183 9.792 167.447 12.32C166.743 14.848 166.391 17.776 166.391 21.104C166.391 24.496 166.791 27.456 167.591 29.984C168.423 32.48 169.527 34.416 170.903 35.792C172.311 37.136 173.863 37.808 175.559 37.808C177.351 37.808 178.903 37.088 180.215 35.648C181.559 34.208 182.583 32.224 183.287 29.696C184.023 27.136 184.391 24.208 184.391 20.912C184.391 17.488 183.975 14.528 183.143 12.032C182.343 9.536 181.239 7.616 179.831 6.272C178.455 4.896 176.919 4.208 175.223 4.208ZM219.478 12.656V32.768C219.478 34.208 219.702 35.28 220.15 35.984C220.598 36.656 221.398 36.992 222.55 36.992V38C221.558 37.904 220.566 37.856 219.574 37.856C218.23 37.856 216.982 37.904 215.83 38C214.678 38.096 213.59 38.272 212.566 38.528V34.208C211.798 35.808 210.726 36.96 209.35 37.664C208.006 38.336 206.502 38.672 204.838 38.672C203.494 38.672 202.406 38.496 201.574 38.144C200.742 37.792 200.086 37.344 199.606 36.8C199.062 36.192 198.678 35.392 198.454 34.4C198.23 33.408 198.118 32.128 198.118 30.56V18.416C198.118 16.976 197.894 15.92 197.446 15.248C197.03 14.544 196.23 14.192 195.046 14.192V13.184C196.07 13.28 197.062 13.328 198.022 13.328C199.366 13.328 200.614 13.28 201.766 13.184C202.95 13.056 204.038 12.88 205.03 12.656V32.528C205.03 33.328 205.094 34.032 205.222 34.64C205.382 35.248 205.67 35.728 206.086 36.08C206.502 36.4 207.11 36.56 207.91 36.56C209.19 36.56 210.278 36.032 211.174 34.976C212.102 33.888 212.566 32.56 212.566 30.992V18.416C212.566 16.976 212.342 15.92 211.894 15.248C211.478 14.544 210.678 14.192 209.494 14.192V13.184C210.518 13.28 211.51 13.328 212.47 13.328C213.814 13.328 215.062 13.28 216.214 13.184C217.398 13.056 218.486 12.88 219.478 12.656ZM237.067 12.512C239.883 12.512 242.091 13.344 243.691 15.008C245.291 16.672 246.091 19.392 246.091 23.168H230.299L230.203 22.256H240.043C240.075 20.688 239.979 19.248 239.755 17.936C239.531 16.592 239.179 15.52 238.699 14.72C238.219 13.92 237.579 13.52 236.779 13.52C235.659 13.52 234.699 14.224 233.899 15.632C233.131 17.04 232.667 19.376 232.507 22.64L232.651 22.928C232.619 23.312 232.587 23.712 232.555 24.128C232.555 24.544 232.555 24.976 232.555 25.424C232.555 27.632 232.859 29.424 233.467 30.8C234.107 32.176 234.907 33.184 235.867 33.824C236.827 34.432 237.803 34.736 238.795 34.736C239.755 34.736 240.795 34.496 241.915 34.016C243.067 33.536 244.139 32.496 245.131 30.896L245.995 31.184C245.611 32.4 245.003 33.584 244.171 34.736C243.339 35.888 242.283 36.832 241.003 37.568C239.723 38.304 238.187 38.672 236.395 38.672C234.219 38.672 232.299 38.208 230.635 37.28C228.971 36.352 227.659 34.944 226.699 33.056C225.771 31.168 225.307 28.768 225.307 25.856C225.307 22.88 225.803 20.4 226.795 18.416C227.819 16.432 229.211 14.96 230.971 14C232.763 13.008 234.795 12.512 237.067 12.512ZM258.375 12.512C259.719 12.512 260.887 12.688 261.879 13.04C262.903 13.36 263.639 13.68 264.087 14C265.175 14.736 265.847 14.256 266.103 12.56H267.111C267.047 13.456 266.999 14.56 266.967 15.872C266.935 17.152 266.919 18.864 266.919 21.008H265.911C265.751 19.824 265.447 18.656 264.999 17.504C264.551 16.352 263.895 15.408 263.031 14.672C262.199 13.936 261.111 13.568 259.767 13.568C258.839 13.568 258.055 13.84 257.415 14.384C256.775 14.896 256.455 15.648 256.455 16.64C256.455 17.6 256.743 18.448 257.319 19.184C257.895 19.888 258.631 20.576 259.527 21.248C260.455 21.888 261.415 22.576 262.407 23.312C264.007 24.496 265.351 25.696 266.439 26.912C267.559 28.096 268.119 29.648 268.119 31.568C268.119 33.008 267.703 34.272 266.871 35.36C266.039 36.416 264.935 37.232 263.559 37.808C262.215 38.384 260.711 38.672 259.047 38.672C258.087 38.672 257.223 38.576 256.455 38.384C255.719 38.192 255.079 37.952 254.535 37.664C254.119 37.472 253.719 37.296 253.335 37.136C252.983 36.944 252.647 36.784 252.327 36.656C252.007 36.56 251.719 36.672 251.463 36.992C251.239 37.312 251.063 37.76 250.935 38.336H249.927C249.991 37.312 250.039 36.064 250.071 34.592C250.103 33.12 250.119 31.168 250.119 28.736H251.127C251.319 30.464 251.671 32 252.183 33.344C252.695 34.656 253.383 35.696 254.247 36.464C255.143 37.2 256.263 37.568 257.607 37.568C258.439 37.568 259.207 37.312 259.911 36.8C260.615 36.256 260.967 35.376 260.967 34.16C260.967 32.752 260.503 31.584 259.575 30.656C258.679 29.728 257.527 28.72 256.119 27.632C255.095 26.8 254.119 25.984 253.191 25.184C252.295 24.352 251.559 23.456 250.983 22.496C250.407 21.504 250.119 20.384 250.119 19.136C250.119 17.696 250.503 16.48 251.271 15.488C252.039 14.496 253.047 13.76 254.295 13.28C255.575 12.768 256.935 12.512 258.375 12.512ZM280.787 5.312V13.184H286.451V14.144H280.787V33.536C280.787 34.496 280.963 35.184 281.315 35.6C281.667 35.984 282.195 36.176 282.899 36.176C283.475 36.176 284.051 35.968 284.627 35.552C285.203 35.104 285.715 34.352 286.163 33.296L286.979 33.728C286.467 35.168 285.683 36.352 284.627 37.28C283.603 38.208 282.195 38.672 280.403 38.672C279.347 38.672 278.419 38.528 277.619 38.24C276.819 37.984 276.147 37.584 275.603 37.04C274.899 36.336 274.435 35.472 274.211 34.448C273.987 33.392 273.875 32.032 273.875 30.368V14.144H269.843V13.184H273.875V6.848C275.219 6.848 276.451 6.736 277.571 6.512C278.723 6.256 279.795 5.856 280.787 5.312ZM294.158 0.799998C295.502 0.799998 296.558 1.136 297.326 1.808C298.126 2.448 298.526 3.344 298.526 4.496C298.526 5.648 298.126 6.56 297.326 7.232C296.558 7.872 295.502 8.192 294.158 8.192C292.814 8.192 291.742 7.872 290.942 7.232C290.174 6.56 289.79 5.648 289.79 4.496C289.79 3.344 290.174 2.448 290.942 1.808C291.742 1.136 292.814 0.799998 294.158 0.799998ZM297.902 12.656V33.536C297.902 34.88 298.126 35.792 298.574 36.272C299.054 36.752 299.854 36.992 300.974 36.992V38C300.398 37.968 299.502 37.936 298.286 37.904C297.07 37.84 295.838 37.808 294.59 37.808C293.342 37.808 292.078 37.84 290.798 37.904C289.518 37.936 288.558 37.968 287.918 38V36.992C289.038 36.992 289.822 36.752 290.27 36.272C290.75 35.792 290.99 34.88 290.99 33.536V18.416C290.99 16.976 290.766 15.92 290.318 15.248C289.902 14.544 289.102 14.192 287.918 14.192V13.184C288.942 13.28 289.934 13.328 290.894 13.328C292.238 13.328 293.486 13.28 294.638 13.184C295.822 13.056 296.91 12.88 297.902 12.656ZM315.442 12.512C317.778 12.512 319.826 12.944 321.586 13.808C323.346 14.672 324.722 16.064 325.714 17.984C326.706 19.904 327.202 22.448 327.202 25.616C327.202 28.784 326.706 31.328 325.714 33.248C324.722 35.136 323.346 36.512 321.586 37.376C319.826 38.24 317.778 38.672 315.442 38.672C313.17 38.672 311.138 38.24 309.346 37.376C307.586 36.512 306.194 35.136 305.17 33.248C304.178 31.328 303.682 28.784 303.682 25.616C303.682 22.448 304.178 19.904 305.17 17.984C306.194 16.064 307.586 14.672 309.346 13.808C311.138 12.944 313.17 12.512 315.442 12.512ZM315.442 13.472C314.162 13.472 313.09 14.432 312.226 16.352C311.362 18.24 310.93 21.328 310.93 25.616C310.93 29.904 311.362 32.992 312.226 34.88C313.09 36.768 314.162 37.712 315.442 37.712C316.754 37.712 317.826 36.768 318.658 34.88C319.522 32.992 319.954 29.904 319.954 25.616C319.954 21.328 319.522 18.24 318.658 16.352C317.826 14.432 316.754 13.472 315.442 13.472ZM348.055 12.512C349.399 12.512 350.487 12.688 351.319 13.04C352.183 13.36 352.855 13.808 353.335 14.384C353.847 14.992 354.215 15.776 354.439 16.736C354.695 17.696 354.823 18.992 354.823 20.624V33.536C354.823 34.88 355.047 35.792 355.495 36.272C355.975 36.752 356.775 36.992 357.895 36.992V38C357.287 37.968 356.375 37.936 355.159 37.904C353.943 37.84 352.743 37.808 351.559 37.808C350.343 37.808 349.143 37.84 347.959 37.904C346.807 37.936 345.927 37.968 345.319 38V36.992C346.279 36.992 346.951 36.752 347.335 36.272C347.719 35.792 347.911 34.88 347.911 33.536V18.608C347.911 17.808 347.831 17.12 347.671 16.544C347.511 15.936 347.223 15.472 346.807 15.152C346.391 14.8 345.767 14.624 344.935 14.624C343.591 14.624 342.455 15.152 341.527 16.208C340.631 17.264 340.183 18.592 340.183 20.192V33.536C340.183 34.88 340.375 35.792 340.759 36.272C341.175 36.752 341.847 36.992 342.775 36.992V38C342.199 37.968 341.351 37.936 340.231 37.904C339.143 37.84 338.007 37.808 336.823 37.808C335.607 37.808 334.359 37.84 333.079 37.904C331.799 37.936 330.839 37.968 330.199 38V36.992C331.319 36.992 332.103 36.752 332.551 36.272C333.031 35.792 333.271 34.88 333.271 33.536V18.416C333.271 16.976 333.047 15.92 332.599 15.248C332.183 14.544 331.383 14.192 330.199 14.192V13.184C331.223 13.28 332.215 13.328 333.175 13.328C334.519 13.328 335.767 13.28 336.919 13.184C338.103 13.056 339.191 12.88 340.183 12.656V16.976C340.983 15.344 342.071 14.192 343.447 13.52C344.823 12.848 346.359 12.512 348.055 12.512ZM381.11 0.463997C384.534 0.463997 387.302 1.232 389.414 2.768C391.558 4.304 392.63 6.416 392.63 9.104C392.63 11.824 391.494 14.08 389.222 15.872C386.982 17.632 384.038 18.928 380.39 19.76V26.768H379.43V19.328C381.222 18.528 382.566 17.648 383.462 16.688C384.358 15.728 384.966 14.688 385.286 13.568C385.606 12.448 385.766 11.264 385.766 10.016C385.766 6.976 385.206 4.784 384.086 3.44C382.998 2.096 381.59 1.424 379.862 1.424C378.998 1.424 378.182 1.52 377.414 1.712C376.678 1.904 376.102 2.224 375.686 2.672C376.55 2.96 377.206 3.392 377.654 3.968C378.134 4.512 378.374 5.248 378.374 6.176C378.374 7.168 378.022 8 377.318 8.672C376.614 9.312 375.702 9.632 374.582 9.632C373.558 9.632 372.726 9.312 372.086 8.672C371.478 8 371.174 7.216 371.174 6.32C371.174 5.328 371.43 4.512 371.942 3.872C372.486 3.2 373.142 2.624 373.91 2.144C374.678 1.696 375.654 1.312 376.838 0.991999C378.054 0.639997 379.478 0.463997 381.11 0.463997ZM379.958 31.28C381.206 31.28 382.198 31.616 382.934 32.288C383.67 32.928 384.038 33.824 384.038 34.976C384.038 36.128 383.67 37.04 382.934 37.712C382.198 38.352 381.206 38.672 379.958 38.672C378.71 38.672 377.718 38.352 376.982 37.712C376.246 37.04 375.878 36.128 375.878 34.976C375.878 33.824 376.246 32.928 376.982 32.288C377.718 31.616 378.71 31.28 379.958 31.28ZM18.44 61.344C20.616 61.344 22.392 61.648 23.768 62.256C25.144 62.864 26.376 63.6 27.464 64.464C27.848 64.752 28.168 64.896 28.424 64.896C29.032 64.896 29.432 63.936 29.624 62.016H30.728C30.664 63.264 30.616 64.784 30.584 66.576C30.552 68.336 30.536 70.688 30.536 73.632H29.432C29.208 71.712 28.856 70.048 28.376 68.64C27.928 67.2 27.08 65.968 25.832 64.944C25.064 64.208 24.104 63.632 22.952 63.216C21.832 62.8 20.696 62.592 19.544 62.592C17.784 62.592 16.28 63.056 15.032 63.984C13.784 64.88 12.76 66.112 11.96 67.68C11.16 69.248 10.568 71.024 10.184 73.008C9.8 74.96 9.608 76.992 9.608 79.104C9.608 84.864 10.392 89.072 11.96 91.728C13.56 94.384 15.848 95.712 18.824 95.712C19.592 95.712 20.264 95.616 20.84 95.424C21.416 95.232 21.88 95.008 22.232 94.752C22.68 94.432 22.984 94.096 23.144 93.744C23.304 93.36 23.384 92.864 23.384 92.256V87.552C23.384 86.08 23.256 84.992 23 84.288C22.776 83.552 22.312 83.056 21.608 82.8C20.904 82.544 19.88 82.4 18.536 82.368V81.408C19.208 81.44 20.008 81.472 20.936 81.504C21.896 81.504 22.888 81.52 23.912 81.552C24.936 81.552 25.88 81.552 26.744 81.552C28.088 81.552 29.32 81.536 30.44 81.504C31.56 81.472 32.472 81.44 33.176 81.408V82.368C32.28 82.432 31.688 82.688 31.4 83.136C31.144 83.584 31.016 84.704 31.016 86.496V96H30.056C30.024 95.456 29.896 94.864 29.672 94.224C29.48 93.584 29.144 93.264 28.664 93.264C28.44 93.264 28.136 93.328 27.752 93.456C27.4 93.552 26.84 93.824 26.072 94.272C24.888 94.944 23.64 95.52 22.328 96C21.016 96.448 19.64 96.672 18.2 96.672C12.6 96.672 8.344 95.152 5.432 92.112C2.52 89.072 1.064 84.832 1.064 79.392C1.064 75.744 1.8 72.576 3.272 69.888C4.776 67.2 6.824 65.104 9.416 63.6C12.04 62.096 15.048 61.344 18.44 61.344ZM47.8329 70.512C50.6489 70.512 52.8569 71.344 54.4569 73.008C56.0569 74.672 56.8569 77.392 56.8569 81.168H41.0649L40.9689 80.256H50.8089C50.8409 78.688 50.7449 77.248 50.5209 75.936C50.2969 74.592 49.9449 73.52 49.4649 72.72C48.9849 71.92 48.3449 71.52 47.5449 71.52C46.4249 71.52 45.4649 72.224 44.6649 73.632C43.8969 75.04 43.4329 77.376 43.2729 80.64L43.4169 80.928C43.3849 81.312 43.3529 81.712 43.3209 82.128C43.3209 82.544 43.3209 82.976 43.3209 83.424C43.3209 85.632 43.6249 87.424 44.2329 88.8C44.8729 90.176 45.6729 91.184 46.6329 91.824C47.5929 92.432 48.5689 92.736 49.5609 92.736C50.5209 92.736 51.5609 92.496 52.6809 92.016C53.8329 91.536 54.9049 90.496 55.8969 88.896L56.7609 89.184C56.3769 90.4 55.7689 91.584 54.9369 92.736C54.1049 93.888 53.0489 94.832 51.7689 95.568C50.4889 96.304 48.9529 96.672 47.1609 96.672C44.9849 96.672 43.0649 96.208 41.4009 95.28C39.7369 94.352 38.4249 92.944 37.4649 91.056C36.5369 89.168 36.0729 86.768 36.0729 83.856C36.0729 80.88 36.5689 78.4 37.5609 76.416C38.5849 74.432 39.9769 72.96 41.7369 72C43.5289 71.008 45.5609 70.512 47.8329 70.512ZM69.3804 63.312V71.184H75.0444V72.144H69.3804V91.536C69.3804 92.496 69.5564 93.184 69.9084 93.6C70.2604 93.984 70.7884 94.176 71.4924 94.176C72.0684 94.176 72.6444 93.968 73.2204 93.552C73.7964 93.104 74.3084 92.352 74.7564 91.296L75.5724 91.728C75.0604 93.168 74.2764 94.352 73.2204 95.28C72.1964 96.208 70.7884 96.672 68.9964 96.672C67.9404 96.672 67.0124 96.528 66.2124 96.24C65.4124 95.984 64.7404 95.584 64.1964 95.04C63.4924 94.336 63.0284 93.472 62.8044 92.448C62.5804 91.392 62.4684 90.032 62.4684 88.368V72.144H58.4364V71.184H62.4684V64.848C63.8124 64.848 65.0444 64.736 66.1644 64.512C67.3164 64.256 68.3884 63.856 69.3804 63.312ZM93.6264 58.8C94.9704 58.8 96.0264 59.136 96.7944 59.808C97.5944 60.448 97.9944 61.344 97.9944 62.496C97.9944 63.648 97.5944 64.56 96.7944 65.232C96.0264 65.872 94.9704 66.192 93.6264 66.192C92.2824 66.192 91.2104 65.872 90.4104 65.232C89.6424 64.56 89.2584 63.648 89.2584 62.496C89.2584 61.344 89.6424 60.448 90.4104 59.808C91.2104 59.136 92.2824 58.8 93.6264 58.8ZM97.3704 70.656V91.536C97.3704 92.88 97.5944 93.792 98.0424 94.272C98.5224 94.752 99.3224 94.992 100.442 94.992V96C99.8664 95.968 98.9704 95.936 97.7544 95.904C96.5384 95.84 95.3064 95.808 94.0584 95.808C92.8104 95.808 91.5464 95.84 90.2664 95.904C88.9864 95.936 88.0264 95.968 87.3864 96V94.992C88.5064 94.992 89.2904 94.752 89.7384 94.272C90.2184 93.792 90.4584 92.88 90.4584 91.536V76.416C90.4584 74.976 90.2344 73.92 89.7864 73.248C89.3704 72.544 88.5704 72.192 87.3864 72.192V71.184C88.4104 71.28 89.4024 71.328 90.3624 71.328C91.7064 71.328 92.9544 71.28 94.1064 71.184C95.2904 71.056 96.3784 70.88 97.3704 70.656ZM120.383 70.512C121.727 70.512 122.815 70.688 123.647 71.04C124.511 71.36 125.183 71.808 125.663 72.384C126.175 72.992 126.543 73.776 126.767 74.736C127.023 75.696 127.151 76.992 127.151 78.624V91.536C127.151 92.88 127.375 93.792 127.823 94.272C128.303 94.752 129.103 94.992 130.223 94.992V96C129.615 95.968 128.703 95.936 127.487 95.904C126.271 95.84 125.071 95.808 123.887 95.808C122.671 95.808 121.471 95.84 120.287 95.904C119.135 95.936 118.255 95.968 117.647 96V94.992C118.607 94.992 119.279 94.752 119.663 94.272C120.047 93.792 120.239 92.88 120.239 91.536V76.608C120.239 75.808 120.159 75.12 119.999 74.544C119.839 73.936 119.551 73.472 119.135 73.152C118.719 72.8 118.095 72.624 117.263 72.624C115.919 72.624 114.783 73.152 113.855 74.208C112.959 75.264 112.511 76.592 112.511 78.192V91.536C112.511 92.88 112.703 93.792 113.087 94.272C113.503 94.752 114.175 94.992 115.103 94.992V96C114.527 95.968 113.679 95.936 112.559 95.904C111.471 95.84 110.335 95.808 109.151 95.808C107.935 95.808 106.687 95.84 105.407 95.904C104.127 95.936 103.167 95.968 102.527 96V94.992C103.647 94.992 104.431 94.752 104.879 94.272C105.359 93.792 105.599 92.88 105.599 91.536V76.416C105.599 74.976 105.375 73.92 104.927 73.248C104.511 72.544 103.711 72.192 102.527 72.192V71.184C103.551 71.28 104.543 71.328 105.503 71.328C106.847 71.328 108.095 71.28 109.247 71.184C110.431 71.056 111.519 70.88 112.511 70.656V74.976C113.311 73.344 114.399 72.192 115.775 71.52C117.151 70.848 118.687 70.512 120.383 70.512ZM171.754 62.016C171.626 63.648 171.53 65.216 171.466 66.72C171.434 68.224 171.418 69.376 171.418 70.176C171.418 70.88 171.434 71.552 171.466 72.192C171.498 72.832 171.53 73.376 171.562 73.824H170.458C169.946 71.136 169.29 69.008 168.49 67.44C167.722 65.872 166.794 64.768 165.706 64.128C164.618 63.456 163.338 63.12 161.866 63.12H160.762V90.528C160.762 91.808 160.89 92.768 161.146 93.408C161.434 94.048 161.946 94.48 162.682 94.704C163.418 94.896 164.49 95.008 165.898 95.04V96C164.906 95.968 163.578 95.936 161.914 95.904C160.282 95.872 158.57 95.856 156.778 95.856C155.018 95.856 153.354 95.872 151.786 95.904C150.218 95.936 148.954 95.968 147.993 96V95.04C149.434 95.008 150.522 94.896 151.258 94.704C151.994 94.48 152.49 94.048 152.746 93.408C153.002 92.768 153.13 91.808 153.13 90.528V63.12H152.074C150.602 63.12 149.322 63.456 148.234 64.128C147.146 64.768 146.218 65.872 145.45 67.44C144.682 68.976 144.01 71.104 143.434 73.824H142.33C142.394 73.376 142.426 72.832 142.426 72.192C142.458 71.552 142.474 70.88 142.474 70.176C142.474 69.376 142.442 68.224 142.378 66.72C142.346 65.216 142.266 63.648 142.138 62.016C143.61 62.048 145.21 62.08 146.938 62.112C148.698 62.144 150.458 62.16 152.218 62.16C153.978 62.16 155.562 62.16 156.97 62.16C158.41 62.16 159.994 62.16 161.722 62.16C163.482 62.16 165.242 62.144 167.002 62.112C168.762 62.08 170.346 62.048 171.754 62.016ZM184.567 70.512C186.903 70.512 188.951 70.944 190.711 71.808C192.471 72.672 193.847 74.064 194.839 75.984C195.831 77.904 196.327 80.448 196.327 83.616C196.327 86.784 195.831 89.328 194.839 91.248C193.847 93.136 192.471 94.512 190.711 95.376C188.951 96.24 186.903 96.672 184.567 96.672C182.295 96.672 180.263 96.24 178.471 95.376C176.711 94.512 175.319 93.136 174.295 91.248C173.303 89.328 172.807 86.784 172.807 83.616C172.807 80.448 173.303 77.904 174.295 75.984C175.319 74.064 176.711 72.672 178.471 71.808C180.263 70.944 182.295 70.512 184.567 70.512ZM184.567 71.472C183.287 71.472 182.215 72.432 181.351 74.352C180.487 76.24 180.055 79.328 180.055 83.616C180.055 87.904 180.487 90.992 181.351 92.88C182.215 94.768 183.287 95.712 184.567 95.712C185.879 95.712 186.951 94.768 187.783 92.88C188.647 90.992 189.079 87.904 189.079 83.616C189.079 79.328 188.647 76.24 187.783 74.352C186.951 72.432 185.879 71.472 184.567 71.472ZM223.228 70.656V90.768C223.228 92.208 223.452 93.28 223.9 93.984C224.348 94.656 225.148 94.992 226.3 94.992V96C225.308 95.904 224.316 95.856 223.324 95.856C221.98 95.856 220.732 95.904 219.58 96C218.428 96.096 217.34 96.272 216.316 96.528V92.208C215.548 93.808 214.476 94.96 213.1 95.664C211.756 96.336 210.252 96.672 208.588 96.672C207.244 96.672 206.156 96.496 205.324 96.144C204.492 95.792 203.836 95.344 203.356 94.8C202.812 94.192 202.428 93.392 202.204 92.4C201.98 91.408 201.868 90.128 201.868 88.56V76.416C201.868 74.976 201.644 73.92 201.196 73.248C200.78 72.544 199.98 72.192 198.796 72.192V71.184C199.82 71.28 200.812 71.328 201.772 71.328C203.116 71.328 204.364 71.28 205.516 71.184C206.7 71.056 207.788 70.88 208.78 70.656V90.528C208.78 91.328 208.844 92.032 208.972 92.64C209.132 93.248 209.42 93.728 209.836 94.08C210.252 94.4 210.86 94.56 211.66 94.56C212.94 94.56 214.028 94.032 214.924 92.976C215.852 91.888 216.316 90.56 216.316 88.992V76.416C216.316 74.976 216.092 73.92 215.644 73.248C215.228 72.544 214.428 72.192 213.244 72.192V71.184C214.268 71.28 215.26 71.328 216.22 71.328C217.564 71.328 218.812 71.28 219.964 71.184C221.148 71.056 222.236 70.88 223.228 70.656ZM240.913 70.512C242.161 70.512 243.297 70.656 244.321 70.944C245.377 71.2 246.241 71.536 246.913 71.952C247.745 72.464 248.385 73.104 248.833 73.872C249.313 74.608 249.553 75.472 249.553 76.464C249.553 77.584 249.201 78.512 248.497 79.248C247.793 79.952 246.881 80.304 245.761 80.304C244.641 80.304 243.745 79.984 243.073 79.344C242.401 78.704 242.065 77.84 242.065 76.752C242.065 75.728 242.385 74.88 243.025 74.208C243.665 73.504 244.401 73.04 245.233 72.816C244.977 72.496 244.593 72.224 244.081 72C243.569 71.776 242.993 71.664 242.353 71.664C241.361 71.664 240.481 71.952 239.713 72.528C238.977 73.104 238.353 73.904 237.841 74.928C237.329 75.952 236.929 77.152 236.641 78.528C236.385 79.904 236.257 81.408 236.257 83.04C236.257 85.504 236.561 87.44 237.169 88.848C237.809 90.256 238.609 91.248 239.569 91.824C240.561 92.4 241.585 92.688 242.641 92.688C243.537 92.688 244.561 92.448 245.713 91.968C246.865 91.456 247.937 90.4 248.929 88.8L249.745 89.088C249.393 90.272 248.817 91.456 248.017 92.64C247.217 93.824 246.177 94.8 244.897 95.568C243.617 96.304 242.049 96.672 240.193 96.672C238.113 96.672 236.225 96.224 234.529 95.328C232.865 94.4 231.521 92.992 230.497 91.104C229.505 89.184 229.009 86.72 229.009 83.712C229.009 80.832 229.521 78.416 230.545 76.464C231.601 74.48 233.025 72.992 234.817 72C236.609 71.008 238.641 70.512 240.913 70.512ZM261.99 58.464V74.976C262.79 73.312 263.862 72.16 265.206 71.52C266.582 70.848 268.118 70.512 269.814 70.512C271.19 70.512 272.294 70.688 273.126 71.04C273.958 71.36 274.614 71.808 275.094 72.384C275.638 72.992 276.022 73.776 276.246 74.736C276.502 75.696 276.63 76.992 276.63 78.624V91.536C276.63 92.88 276.854 93.792 277.302 94.272C277.782 94.752 278.582 94.992 279.702 94.992V96C279.094 95.968 278.166 95.936 276.918 95.904C275.702 95.84 274.518 95.808 273.366 95.808C272.118 95.808 270.902 95.84 269.718 95.904C268.566 95.936 267.702 95.968 267.126 96V94.992C268.086 94.992 268.758 94.752 269.142 94.272C269.526 93.792 269.718 92.88 269.718 91.536V76.608C269.718 75.808 269.638 75.12 269.478 74.544C269.318 73.936 269.014 73.472 268.566 73.152C268.15 72.8 267.542 72.624 266.742 72.624C265.43 72.624 264.31 73.136 263.382 74.16C262.454 75.184 261.99 76.512 261.99 78.144V91.536C261.99 92.88 262.182 93.792 262.566 94.272C262.95 94.752 263.622 94.992 264.582 94.992V96C264.006 95.968 263.158 95.936 262.038 95.904C260.918 95.84 259.782 95.808 258.63 95.808C257.382 95.808 256.118 95.84 254.838 95.904C253.59 95.936 252.646 95.968 252.006 96V94.992C253.126 94.992 253.91 94.752 254.358 94.272C254.838 93.792 255.078 92.88 255.078 91.536V64.224C255.078 62.784 254.854 61.728 254.406 61.056C253.99 60.352 253.19 60 252.006 60V58.992C253.03 59.088 254.022 59.136 254.982 59.136C256.294 59.136 257.542 59.088 258.726 58.992C259.91 58.864 260.998 58.688 261.99 58.464ZM302.861 71.184V72.192C302.157 72.192 301.533 72.24 300.989 72.336C300.477 72.4 300.125 72.624 299.933 73.008C299.773 73.392 299.837 74.016 300.125 74.88L304.685 89.136L304.061 89.808L309.677 71.136L310.637 71.568L303.293 96.096C302.781 96.064 302.269 96.048 301.757 96.048C301.245 96.048 300.717 96.064 300.173 96.096L292.589 74.88C292.141 73.6 291.645 72.832 291.101 72.576C290.589 72.32 290.157 72.192 289.805 72.192V71.184C290.829 71.28 291.885 71.36 292.973 71.424C294.093 71.456 295.309 71.472 296.621 71.472C297.613 71.472 298.653 71.44 299.741 71.376C300.861 71.312 301.901 71.248 302.861 71.184ZM327.917 71.184V72.144C327.309 72.304 326.733 72.672 326.189 73.248C325.645 73.824 325.133 74.832 324.653 76.272L318.269 96.096C317.757 96.064 317.229 96.048 316.685 96.048C316.173 96.048 315.661 96.064 315.149 96.096L308.381 77.616L309.677 71.136C310.253 71.168 310.829 71.184 311.405 71.184C312.013 71.152 312.605 71.136 313.181 71.136L319.757 90.528L319.229 90L322.445 79.824C323.277 77.2 323.357 75.296 322.685 74.112C322.045 72.928 320.925 72.272 319.325 72.144V71.184C319.837 71.216 320.381 71.248 320.957 71.28C321.565 71.28 322.157 71.296 322.733 71.328C323.341 71.328 323.853 71.328 324.269 71.328C324.909 71.328 325.565 71.312 326.237 71.28C326.941 71.248 327.501 71.216 327.917 71.184ZM335.314 58.8C336.658 58.8 337.714 59.136 338.482 59.808C339.282 60.448 339.682 61.344 339.682 62.496C339.682 63.648 339.282 64.56 338.482 65.232C337.714 65.872 336.658 66.192 335.314 66.192C333.97 66.192 332.898 65.872 332.098 65.232C331.33 64.56 330.946 63.648 330.946 62.496C330.946 61.344 331.33 60.448 332.098 59.808C332.898 59.136 333.97 58.8 335.314 58.8ZM339.058 70.656V91.536C339.058 92.88 339.282 93.792 339.73 94.272C340.21 94.752 341.01 94.992 342.13 94.992V96C341.554 95.968 340.658 95.936 339.442 95.904C338.226 95.84 336.994 95.808 335.746 95.808C334.498 95.808 333.234 95.84 331.954 95.904C330.674 95.936 329.714 95.968 329.074 96V94.992C330.194 94.992 330.978 94.752 331.426 94.272C331.906 93.792 332.146 92.88 332.146 91.536V76.416C332.146 74.976 331.922 73.92 331.474 73.248C331.058 72.544 330.258 72.192 329.074 72.192V71.184C330.098 71.28 331.09 71.328 332.05 71.328C333.394 71.328 334.642 71.28 335.794 71.184C336.978 71.056 338.066 70.88 339.058 70.656ZM353.959 63.312V71.184H359.623V72.144H353.959V91.536C353.959 92.496 354.135 93.184 354.487 93.6C354.839 93.984 355.367 94.176 356.071 94.176C356.647 94.176 357.223 93.968 357.799 93.552C358.375 93.104 358.887 92.352 359.335 91.296L360.151 91.728C359.639 93.168 358.855 94.352 357.799 95.28C356.775 96.208 355.367 96.672 353.575 96.672C352.519 96.672 351.591 96.528 350.791 96.24C349.991 95.984 349.319 95.584 348.775 95.04C348.071 94.336 347.607 93.472 347.383 92.448C347.159 91.392 347.047 90.032 347.047 88.368V72.144H343.014V71.184H347.047V64.848C348.391 64.848 349.623 64.736 350.743 64.512C351.895 64.256 352.967 63.856 353.959 63.312ZM370.834 58.464V74.976C371.634 73.312 372.706 72.16 374.049 71.52C375.426 70.848 376.962 70.512 378.658 70.512C380.034 70.512 381.138 70.688 381.97 71.04C382.802 71.36 383.458 71.808 383.938 72.384C384.482 72.992 384.866 73.776 385.09 74.736C385.346 75.696 385.474 76.992 385.474 78.624V91.536C385.474 92.88 385.698 93.792 386.146 94.272C386.626 94.752 387.426 94.992 388.546 94.992V96C387.938 95.968 387.01 95.936 385.762 95.904C384.546 95.84 383.362 95.808 382.21 95.808C380.962 95.808 379.746 95.84 378.562 95.904C377.41 95.936 376.546 95.968 375.97 96V94.992C376.93 94.992 377.602 94.752 377.986 94.272C378.37 93.792 378.562 92.88 378.562 91.536V76.608C378.562 75.808 378.482 75.12 378.322 74.544C378.162 73.936 377.858 73.472 377.41 73.152C376.994 72.8 376.386 72.624 375.586 72.624C374.274 72.624 373.154 73.136 372.226 74.16C371.298 75.184 370.834 76.512 370.834 78.144V91.536C370.834 92.88 371.026 93.792 371.41 94.272C371.794 94.752 372.466 94.992 373.426 94.992V96C372.85 95.968 372.002 95.936 370.882 95.904C369.762 95.84 368.626 95.808 367.474 95.808C366.226 95.808 364.962 95.84 363.682 95.904C362.434 95.936 361.49 95.968 360.85 96V94.992C361.97 94.992 362.754 94.752 363.202 94.272C363.682 93.792 363.922 92.88 363.922 91.536V64.224C363.922 62.784 363.698 61.728 363.25 61.056C362.834 60.352 362.034 60 360.85 60V58.992C361.874 59.088 362.866 59.136 363.826 59.136C365.138 59.136 366.386 59.088 367.57 58.992C368.754 58.864 369.842 58.688 370.834 58.464ZM425.4 70.656V90.768C425.4 92.208 425.624 93.28 426.072 93.984C426.52 94.656 427.32 94.992 428.472 94.992V96C427.48 95.904 426.488 95.856 425.496 95.856C424.152 95.856 422.904 95.904 421.752 96C420.6 96.096 419.512 96.272 418.488 96.528V92.208C417.72 93.808 416.648 94.96 415.272 95.664C413.928 96.336 412.424 96.672 410.76 96.672C409.416 96.672 408.328 96.496 407.496 96.144C406.664 95.792 406.008 95.344 405.528 94.8C404.984 94.192 404.6 93.392 404.376 92.4C404.152 91.408 404.04 90.128 404.04 88.56V76.416C404.04 74.976 403.816 73.92 403.368 73.248C402.952 72.544 402.152 72.192 400.968 72.192V71.184C401.992 71.28 402.984 71.328 403.944 71.328C405.288 71.328 406.536 71.28 407.688 71.184C408.872 71.056 409.96 70.88 410.952 70.656V90.528C410.952 91.328 411.016 92.032 411.144 92.64C411.304 93.248 411.592 93.728 412.008 94.08C412.424 94.4 413.032 94.56 413.832 94.56C415.112 94.56 416.2 94.032 417.096 92.976C418.024 91.888 418.488 90.56 418.488 88.992V76.416C418.488 74.976 418.264 73.92 417.816 73.248C417.4 72.544 416.6 72.192 415.416 72.192V71.184C416.44 71.28 417.432 71.328 418.392 71.328C419.736 71.328 420.984 71.28 422.136 71.184C423.32 71.056 424.408 70.88 425.4 70.656ZM440.109 70.512C441.453 70.512 442.621 70.688 443.613 71.04C444.637 71.36 445.373 71.68 445.821 72C446.909 72.736 447.581 72.256 447.837 70.56H448.845C448.781 71.456 448.733 72.56 448.701 73.872C448.669 75.152 448.653 76.864 448.653 79.008H447.645C447.485 77.824 447.181 76.656 446.733 75.504C446.285 74.352 445.629 73.408 444.765 72.672C443.933 71.936 442.845 71.568 441.501 71.568C440.573 71.568 439.789 71.84 439.149 72.384C438.509 72.896 438.189 73.648 438.189 74.64C438.189 75.6 438.477 76.448 439.053 77.184C439.629 77.888 440.365 78.576 441.261 79.248C442.189 79.888 443.149 80.576 444.141 81.312C445.741 82.496 447.085 83.696 448.173 84.912C449.293 86.096 449.853 87.648 449.853 89.568C449.853 91.008 449.437 92.272 448.605 93.36C447.773 94.416 446.669 95.232 445.293 95.808C443.949 96.384 442.445 96.672 440.781 96.672C439.821 96.672 438.957 96.576 438.189 96.384C437.453 96.192 436.813 95.952 436.269 95.664C435.853 95.472 435.453 95.296 435.069 95.136C434.717 94.944 434.381 94.784 434.061 94.656C433.741 94.56 433.453 94.672 433.197 94.992C432.973 95.312 432.797 95.76 432.669 96.336H431.661C431.725 95.312 431.773 94.064 431.805 92.592C431.837 91.12 431.853 89.168 431.853 86.736H432.861C433.053 88.464 433.405 90 433.917 91.344C434.429 92.656 435.117 93.696 435.981 94.464C436.877 95.2 437.997 95.568 439.341 95.568C440.173 95.568 440.941 95.312 441.645 94.8C442.349 94.256 442.701 93.376 442.701 92.16C442.701 90.752 442.237 89.584 441.309 88.656C440.413 87.728 439.261 86.72 437.853 85.632C436.829 84.8 435.853 83.984 434.925 83.184C434.029 82.352 433.293 81.456 432.717 80.496C432.141 79.504 431.853 78.384 431.853 77.136C431.853 75.696 432.237 74.48 433.005 73.488C433.773 72.496 434.781 71.76 436.029 71.28C437.309 70.768 438.669 70.512 440.109 70.512ZM462.828 99.36H510.828V51.36H462.828V99.36Z" fill="white"/>
</svg>
