<svg width="130" height="15" viewBox="0 0 130 15" fill="none" xmlns="http://www.w3.org/2000/svg">
<g clip-path="url(#clip0_1540_7)">
<path d="M14.4444 7.72076C14.4444 3.73203 11.2109 0.498535 7.22222 0.498535C3.2335 0.498535 0 3.73203 0 7.72076C0 11.3255 2.64105 14.3134 6.09375 14.8552V9.80843H4.25998V7.72076H6.09375V6.12961C6.09375 4.31954 7.17201 3.31972 8.82169 3.31972C9.61162 3.31972 10.4384 3.46077 10.4384 3.46077V5.23812H9.52769C8.63056 5.23812 8.35069 5.79488 8.35069 6.36659V7.72076H10.3537L10.0335 9.80843H8.35069V14.8552C11.8034 14.3134 14.4444 11.3255 14.4444 7.72076Z" fill="white"/>
</g>
<g clip-path="url(#clip1_1540_7)">
<path d="M43.0626 13.589C48.512 13.589 51.4934 9.0731 51.4934 5.15814C51.4934 5.03119 51.4906 4.90142 51.485 4.77446C52.065 4.35503 52.5655 3.83551 52.963 3.24031C52.4229 3.48063 51.8494 3.63758 51.2621 3.7058C51.8804 3.33516 52.3434 2.75291 52.5652 2.06698C51.9835 2.41171 51.3474 2.65489 50.6841 2.7861C50.2371 2.3112 49.6462 1.99677 49.0026 1.89141C48.3591 1.78604 47.6987 1.89562 47.1237 2.20319C46.5486 2.51077 46.0909 2.99921 45.8213 3.593C45.5517 4.18679 45.4852 4.85286 45.6322 5.48822C44.4543 5.42912 43.302 5.12314 42.25 4.59014C41.198 4.05714 40.2698 3.309 39.5254 2.39423C39.1471 3.04648 39.0314 3.81829 39.2017 4.55282C39.372 5.28735 39.8156 5.92947 40.4423 6.34868C39.9718 6.33374 39.5116 6.20706 39.0997 5.97911V6.01578C39.0993 6.70026 39.3359 7.36377 39.7694 7.89351C40.2029 8.42325 40.8064 8.78653 41.4774 8.9216C41.0416 9.04085 40.5841 9.05823 40.1405 8.97238C40.3298 9.56104 40.6982 10.0759 41.1943 10.4451C41.6903 10.8143 42.2892 11.0194 42.9075 11.0318C41.8579 11.8563 40.5613 12.3035 39.2267 12.3014C38.99 12.301 38.7535 12.2865 38.5186 12.2579C39.8744 13.1278 41.4517 13.5898 43.0626 13.589Z" fill="white"/>
</g>
<g clip-path="url(#clip2_1540_7)">
<path d="M84.2593 1.7991C86.189 1.7991 86.4175 1.80756 87.1764 1.84142C87.8817 1.87245 88.2626 1.99094 88.5165 2.08968C88.8522 2.21946 89.0948 2.37744 89.3459 2.62853C89.5998 2.88243 89.755 3.12223 89.8848 3.45795C89.9835 3.71186 90.102 4.09554 90.133 4.79801C90.1669 5.55973 90.1753 5.78825 90.1753 7.71512C90.1753 9.6448 90.1669 9.87332 90.133 10.6322C90.102 11.3375 89.9835 11.7184 89.8848 11.9723C89.755 12.308 89.597 12.5506 89.3459 12.8017C89.092 13.0556 88.8522 13.2108 88.5165 13.3406C88.2626 13.4393 87.8789 13.5578 87.1764 13.5888C86.4147 13.6227 86.1862 13.6311 84.2593 13.6311C82.3296 13.6311 82.1011 13.6227 81.3422 13.5888C80.6369 13.5578 80.2561 13.4393 80.0022 13.3406C79.6665 13.2108 79.4238 13.0528 79.1727 12.8017C78.9188 12.5478 78.7637 12.308 78.6339 11.9723C78.5352 11.7184 78.4167 11.3347 78.3856 10.6322C78.3518 9.8705 78.3433 9.64198 78.3433 7.71512C78.3433 5.78543 78.3518 5.55691 78.3856 4.79801C78.4167 4.09272 78.5352 3.71186 78.6339 3.45795C78.7637 3.12223 78.9217 2.87961 79.1727 2.62853C79.4266 2.37462 79.6665 2.21946 80.0022 2.08968C80.2561 1.99094 80.6398 1.87245 81.3422 1.84142C82.1011 1.80756 82.3296 1.7991 84.2593 1.7991ZM84.2593 0.498535C82.2986 0.498535 82.0532 0.506999 81.283 0.540853C80.5156 0.574707 79.9881 0.698839 79.531 0.876573C79.0543 1.06277 78.6508 1.30821 78.2502 1.71164C77.8468 2.11225 77.6013 2.51568 77.4151 2.98964C77.2374 3.44949 77.1133 3.97423 77.0794 4.74159C77.0456 5.51459 77.0371 5.76004 77.0371 7.72076C77.0371 9.68148 77.0456 9.92692 77.0794 10.6971C77.1133 11.4645 77.2374 11.992 77.4151 12.4491C77.6013 12.9258 77.8468 13.3293 78.2502 13.7299C78.6508 14.1305 79.0543 14.3787 79.5282 14.5621C79.9881 14.7399 80.5128 14.864 81.2802 14.8978C82.0503 14.9317 82.2958 14.9402 84.2565 14.9402C86.2172 14.9402 86.4627 14.9317 87.2329 14.8978C88.0002 14.864 88.5278 14.7399 88.9848 14.5621C89.4588 14.3787 89.8622 14.1305 90.2628 13.7299C90.6634 13.3293 90.9117 12.9258 91.0951 12.4519C91.2728 11.992 91.3969 11.4673 91.4308 10.6999C91.4646 9.92974 91.4731 9.6843 91.4731 7.72358C91.4731 5.76286 91.4646 5.51742 91.4308 4.74723C91.3969 3.97987 91.2728 3.45231 91.0951 2.99528C90.9173 2.51568 90.6719 2.11225 90.2684 1.71164C89.8678 1.31104 89.4644 1.06277 88.9905 0.879395C88.5306 0.70166 88.0059 0.577528 87.2385 0.543674C86.4655 0.506999 86.2201 0.498535 84.2593 0.498535Z" fill="white"/>
<path d="M84.2592 4.01086C82.211 4.01086 80.5493 5.67254 80.5493 7.72072C80.5493 9.76889 82.211 11.4306 84.2592 11.4306C86.3073 11.4306 87.969 9.76889 87.969 7.72072C87.969 5.67254 86.3073 4.01086 84.2592 4.01086ZM84.2592 10.1272C82.9304 10.1272 81.8527 9.04949 81.8527 7.72072C81.8527 6.39194 82.9304 5.31425 84.2592 5.31425C85.5879 5.31425 86.6656 6.39194 86.6656 7.72072C86.6656 9.04949 85.5879 10.1272 84.2592 10.1272Z" fill="white"/>
<path d="M88.9822 3.86415C88.9822 4.34375 88.5929 4.73025 88.1161 4.73025C87.6365 4.73025 87.25 4.34093 87.25 3.86415C87.25 3.38455 87.6393 2.99805 88.1161 2.99805C88.5929 2.99805 88.9822 3.38737 88.9822 3.86415Z" fill="white"/>
</g>
<g clip-path="url(#clip3_1540_7)">
<path d="M128.931 0.498535H116.622C116.032 0.498535 115.556 0.96403 115.556 1.53955V13.8991C115.556 14.4747 116.032 14.943 116.622 14.943H128.931C129.521 14.943 130 14.4747 130 13.902V1.53955C130 0.96403 129.521 0.498535 128.931 0.498535ZM119.841 12.8073H117.697V5.91238H119.841V12.8073ZM118.769 4.97293C118.081 4.97293 117.525 4.41716 117.525 3.73161C117.525 3.04606 118.081 2.49029 118.769 2.49029C119.455 2.49029 120.01 3.04606 120.01 3.73161C120.01 4.41433 119.455 4.97293 118.769 4.97293ZM127.864 12.8073H125.723V9.45578C125.723 8.65739 125.709 7.62766 124.609 7.62766C123.494 7.62766 123.325 8.4994 123.325 9.39936V12.8073H121.187V5.91238H123.241V6.85466H123.269C123.554 6.31299 124.253 5.74029 125.294 5.74029C127.464 5.74029 127.864 7.16781 127.864 9.02414V12.8073Z" fill="white"/>
</g>
<defs>
<clipPath id="clip0_1540_7">
<rect width="14.4444" height="14.4444" fill="white" transform="translate(0 0.498535)"/>
</clipPath>
<clipPath id="clip1_1540_7">
<rect width="14.4444" height="14.4444" fill="white" transform="translate(38.5186 0.498535)"/>
</clipPath>
<clipPath id="clip2_1540_7">
<rect width="14.4444" height="14.4444" fill="white" transform="translate(77.0371 0.498535)"/>
</clipPath>
<clipPath id="clip3_1540_7">
<rect width="14.4444" height="14.4444" fill="white" transform="translate(115.556 0.498535)"/>
</clipPath>
</defs>
</svg>
